<svg xmlns="http://www.w3.org/2000/svg" width="1600" height="2780" viewBox="0 0 1600 2780" role="img" aria-labelledby="title desc">
<title id="title">WhisperLiveKit 能力、原理、输入输出和项目价值总览</title>
<desc id="desc">一张完整图解：Whisper、WhisperLiveKit、LiveKit 的关系；音频输入、语音检测、识别模型、流式确认与文字输出；底层依赖、可选能力、场景、对现有项目的价值和使用边界。</desc>
<rect width="1600" height="2780" fill="#f5f7f3"/>
<defs><marker id="arrow" markerWidth="10" markerHeight="10" refX="7" refY="5" orient="auto"><path d="M0 0 L8 5 L0 10" fill="none" stroke="#d9744e" stroke-width="2.5"/></marker></defs>
<rect x="38" y="35" width="1524" height="270" rx="24" fill="#fffefa" stroke="#d7e2d8" stroke-width="2"/>
<rect x="70" y="67" width="190" height="38" rx="19" fill="#123c2e" stroke="#123c2e" stroke-width="0"/>
<text x="165" y="93" font-size="17" fill="#fffefa" font-weight="800" text-anchor="middle" letter-spacing="1.8">PROJECT 005</text>
<text x="70" y="176" font-size="60" fill="#173328" font-weight="800" text-anchor="start">一张图看懂 WhisperLiveKit</text>
<text x="70" y="231" font-size="25" fill="#52645b" font-weight="400" text-anchor="start">把持续音频变成可逐步显示、确认和复用的文字。核心任务仍是语音转文字。</text>
<text x="1490" y="93" font-size="19" fill="#155b44" font-weight="700" text-anchor="end">研究概览 · 2026.09.25</text>
<rect x="1357" y="142.5" width="9" height="27" rx="4" fill="#155b44" stroke="#155b44" stroke-width="0"/>
<rect x="1378" y="134.0" width="9" height="44" rx="4" fill="#d9744e" stroke="#d9744e" stroke-width="0"/>
<rect x="1399" y="122.5" width="9" height="67" rx="4" fill="#155b44" stroke="#155b44" stroke-width="0"/>
<rect x="1420" y="137.0" width="9" height="38" rx="4" fill="#d9744e" stroke="#d9744e" stroke-width="0"/>
<rect x="1441" y="117.0" width="9" height="78" rx="4" fill="#155b44" stroke="#155b44" stroke-width="0"/>
<rect x="1462" y="133.0" width="9" height="46" rx="4" fill="#d9744e" stroke="#d9744e" stroke-width="0"/>
<rect x="1483" y="141.5" width="9" height="29" rx="4" fill="#155b44" stroke="#155b44" stroke-width="0"/>
<text x="70" y="347" font-size="18" fill="#155b44" font-weight="800" text-anchor="start" letter-spacing="2">01 / 关系</text>
<text x="70" y="395" font-size="36" fill="#173328" font-weight="800" text-anchor="start">三个名字，各管一层</text>
<rect x="70" y="430" width="460" height="225" rx="20" fill="#fffefa" stroke="#d7e2d8" stroke-width="2"/>
<rect x="95" y="452" width="7" height="31" rx="3" fill="#155b44" stroke="#155b44" stroke-width="0"/>
<text x="118" y="477" font-size="18" fill="#155b44" font-weight="800" text-anchor="start">模型</text>
<text x="98" y="523" font-size="30" fill="#173328" font-weight="800" text-anchor="start">Whisper</text>
<text x="98" y="564" font-size="21" fill="#52645b" font-weight="400" text-anchor="start">把一段语音识别成文字</text>
<text x="98" y="596" font-size="21" fill="#52645b" font-weight="400" text-anchor="start">提供基础识别能力</text>
<line x1="98" y1="609" x2="500" y2="609" stroke="#d7e2d8" stroke-width="2"/>
<text x="98" y="637" font-size="18" fill="#70847a" font-weight="700" text-anchor="start">可被本项目作为识别后端</text>
<rect x="570" y="430" width="460" height="225" rx="20" fill="#123c2e" stroke="#123c2e" stroke-width="2"/>
<rect x="595" y="452" width="7" height="31" rx="3" fill="#d9744e" stroke="#d9744e" stroke-width="0"/>
<text x="618" y="477" font-size="18" fill="#acd6b8" font-weight="800" text-anchor="start">本次研究对象</text>
<text x="598" y="523" font-size="30" fill="#fffefa" font-weight="800" text-anchor="start">WhisperLiveKit</text>
<text x="598" y="564" font-size="21" fill="#d4e8d9" font-weight="400" text-anchor="start">接音频、做流式处理</text>
<text x="598" y="596" font-size="21" fill="#d4e8d9" font-weight="400" text-anchor="start">逐步输出文字事件</text>
<line x1="598" y1="609" x2="1000" y2="609" stroke="#547461" stroke-width="2"/>
<text x="598" y="637" font-size="18" fill="#acd6b8" font-weight="700" text-anchor="start">默认可用 Whisper，也支持其他后端</text>
<rect x="1070" y="430" width="460" height="225" rx="20" fill="#fffefa" stroke="#d7e2d8" stroke-width="2"/>
<rect x="1095" y="452" width="7" height="31" rx="3" fill="#155b44" stroke="#155b44" stroke-width="0"/>
<text x="1118" y="477" font-size="18" fill="#155b44" font-weight="800" text-anchor="start">另一套平台</text>
<text x="1098" y="523" font-size="30" fill="#173328" font-weight="800" text-anchor="start">LiveKit</text>
<text x="1098" y="564" font-size="21" fill="#52645b" font-weight="400" text-anchor="start">在参与者之间传输音视频</text>
<text x="1098" y="596" font-size="21" fill="#52645b" font-weight="400" text-anchor="start">管理实时房间与会话</text>
<line x1="1098" y1="609" x2="1500" y2="609" stroke="#d7e2d8" stroke-width="2"/>
<text x="1098" y="637" font-size="18" fill="#70847a" font-weight="700" text-anchor="start">可桥接音频；不是必需依赖</text>
<rect x="70" y="675" width="1460" height="72" rx="13" fill="#e3efe6" stroke="#e3efe6" stroke-width="0"/>
<text x="94" y="720" font-size="25" fill="#155b44" font-weight="700" text-anchor="start">记住：Whisper 负责识别；WhisperLiveKit 负责边听边出字；LiveKit 负责传输实时音视频。</text>
<text x="70" y="773" font-size="18" fill="#155b44" font-weight="800" text-anchor="start" letter-spacing="2">02 / 原理</text>
<text x="70" y="821" font-size="36" fill="#173328" font-weight="800" text-anchor="start">输入 → 实时处理 → 输出</text>
<rect x="70" y="860" width="460" height="150" rx="18" fill="#fffefa" stroke="#d7e2d8" stroke-width="2"/>
<text x="94" y="897" font-size="18" fill="#155b44" font-weight="800" text-anchor="start">输入 A</text>
<text x="94" y="943" font-size="28" fill="#173328" font-weight="800" text-anchor="start">网页 / App 麦克风</text>
<text x="94" y="980" font-size="21" fill="#52645b" font-weight="400" text-anchor="start">音频片段持续送入</text>
<rect x="570" y="860" width="460" height="150" rx="18" fill="#fffefa" stroke="#d7e2d8" stroke-width="2"/>
<text x="594" y="897" font-size="18" fill="#155b44" font-weight="800" text-anchor="start">输入 B</text>
<text x="594" y="943" font-size="28" fill="#173328" font-weight="800" text-anchor="start">会议或通话音轨</text>
<text x="594" y="980" font-size="21" fill="#52645b" font-weight="400" text-anchor="start">已有 LiveKit 时需自行桥接</text>
<rect x="1070" y="860" width="460" height="150" rx="18" fill="#fffefa" stroke="#d7e2d8" stroke-width="2"/>
<text x="1094" y="897" font-size="18" fill="#155b44" font-weight="800" text-anchor="start">输入 C</text>
<text x="1094" y="943" font-size="28" fill="#173328" font-weight="800" text-anchor="start">录音 / 视频文件</text>
<text x="1094" y="980" font-size="21" fill="#52645b" font-weight="400" text-anchor="start">也支持一次性文件转写</text>
<line x1="800" y1="1020" x2="800" y2="1044" stroke="#d9744e" stroke-width="4" marker-end="url(#arrow)"/>
<rect x="70" y="1060" width="1460" height="278" rx="20" fill="#e8f0e9" stroke="#c6d9cb" stroke-width="2"/>
<rect x="90" y="1095" width="335" height="207" rx="15" fill="#fffefa" stroke="#d7e2d8" stroke-width="2"/>
<text x="112" y="1132" font-size="18" fill="#d9744e" font-weight="800" text-anchor="start">01</text>
<text x="112" y="1175" font-size="27" fill="#173328" font-weight="800" text-anchor="start">接收与缓冲</text>
<text x="112" y="1215" font-size="20" fill="#52645b" font-weight="400" text-anchor="start">解码连续音频</text>
<text x="112" y="1246" font-size="20" fill="#52645b" font-weight="400" text-anchor="start">保留必要的上下文</text>
<rect x="445" y="1095" width="335" height="207" rx="15" fill="#fffefa" stroke="#d7e2d8" stroke-width="2"/>
<text x="467" y="1132" font-size="18" fill="#d9744e" font-weight="800" text-anchor="start">02</text>
<text x="467" y="1175" font-size="27" fill="#173328" font-weight="800" text-anchor="start">语音活动检测</text>
<text x="467" y="1215" font-size="20" fill="#52645b" font-weight="400" text-anchor="start">识别说话与静音</text>
<text x="467" y="1246" font-size="20" fill="#52645b" font-weight="400" text-anchor="start">减少无声段计算</text>
<rect x="800" y="1095" width="335" height="207" rx="15" fill="#fffefa" stroke="#d7e2d8" stroke-width="2"/>
<text x="822" y="1132" font-size="18" fill="#d9744e" font-weight="800" text-anchor="start">03</text>
<text x="822" y="1175" font-size="27" fill="#173328" font-weight="800" text-anchor="start">识别模型</text>
<text x="822" y="1215" font-size="20" fill="#52645b" font-weight="400" text-anchor="start">Whisper 系列为默认路线</text>
<text x="822" y="1246" font-size="20" fill="#52645b" font-weight="400" text-anchor="start">亦可选已适配的其他模型</text>
<rect x="1155" y="1095" width="335" height="207" rx="15" fill="#fffefa" stroke="#d7e2d8" stroke-width="2"/>
<text x="1177" y="1132" font-size="18" fill="#d9744e" font-weight="800" text-anchor="start">04</text>
<text x="1177" y="1175" font-size="27" fill="#173328" font-weight="800" text-anchor="start">稳定文字判断</text>
<text x="1177" y="1215" font-size="20" fill="#52645b" font-weight="400" text-anchor="start">AlignAtt：避开音频末端</text>
<text x="1177" y="1246" font-size="20" fill="#52645b" font-weight="400" text-anchor="start">LocalAgreement：一致前缀</text>
<text x="90" y="1328" font-size="18" fill="#52645b" font-weight="400" text-anchor="start">不同识别后端的流式策略可能不同。</text>
<line x1="427" y1="1198" x2="442" y2="1198" stroke="#d9744e" stroke-width="4" marker-end="url(#arrow)"/>
<line x1="782" y1="1198" x2="797" y2="1198" stroke="#d9744e" stroke-width="4" marker-end="url(#arrow)"/>
<line x1="1137" y1="1198" x2="1152" y2="1198" stroke="#d9744e" stroke-width="4" marker-end="url(#arrow)"/>
<line x1="800" y1="1351" x2="800" y2="1414" stroke="#d9744e" stroke-width="4" marker-end="url(#arrow)"/>
<rect x="70" y="1450" width="460" height="158" rx="18" fill="#fffefa" stroke="#d7e2d8" stroke-width="2"/>
<rect x="94" y="1473" width="36" height="6" rx="3" fill="#d9744e" stroke="#d9744e" stroke-width="0"/>
<text x="94" y="1523" font-size="28" fill="#173328" font-weight="800" text-anchor="start">临时文字</text>
<text x="94" y="1563" font-size="21" fill="#52645b" font-weight="400" text-anchor="start">边说边显示</text>
<text x="94" y="1594" font-size="21" fill="#52645b" font-weight="400" text-anchor="start">后续音频到来时可能修订</text>
<rect x="570" y="1450" width="460" height="158" rx="18" fill="#fffefa" stroke="#d7e2d8" stroke-width="2"/>
<rect x="594" y="1473" width="36" height="6" rx="3" fill="#155b44" stroke="#155b44" stroke-width="0"/>
<text x="594" y="1523" font-size="28" fill="#173328" font-weight="800" text-anchor="start">已确认的片段</text>
<text x="594" y="1563" font-size="21" fill="#52645b" font-weight="400" text-anchor="start">适合保存或交给后续业务</text>
<text x="594" y="1594" font-size="21" fill="#52645b" font-weight="400" text-anchor="start">可带时间信息</text>
<rect x="1070" y="1450" width="460" height="158" rx="18" fill="#fffefa" stroke="#d7e2d8" stroke-width="2"/>
<rect x="1094" y="1473" width="36" height="6" rx="3" fill="#155b44" stroke="#155b44" stroke-width="0"/>
<text x="1094" y="1523" font-size="28" fill="#173328" font-weight="800" text-anchor="start">文件与接口结果</text>
<text x="1094" y="1563" font-size="21" fill="#52645b" font-weight="400" text-anchor="start">文字、JSON、SRT / VTT</text>
<text x="1094" y="1594" font-size="21" fill="#52645b" font-weight="400" text-anchor="start">WebSocket / REST / Python</text>
<rect x="70" y="1631" width="710" height="131" rx="16" fill="#fffefa" stroke="#d7e2d8" stroke-width="2"/>
<text x="96" y="1680" font-size="26" fill="#173328" font-weight="800" text-anchor="start">可选增强</text>
<text x="96" y="1719" font-size="21" fill="#52645b" font-weight="400" text-anchor="start">说话人编号、文字翻译、会话术语上下文</text>
<rect x="820" y="1631" width="710" height="131" rx="16" fill="#fffefa" stroke="#d7e2d8" stroke-width="2"/>
<text x="846" y="1680" font-size="26" fill="#173328" font-weight="800" text-anchor="start">运行底座与可选项</text>
<text x="846" y="1719" font-size="20" fill="#52645b" font-weight="400" text-anchor="start">Python · FastAPI/WebSocket · 识别模型与权重</text>
<text x="846" y="1748" font-size="20" fill="#52645b" font-weight="400" text-anchor="start">LiveKit 非必需；翻译/分人/其他后端按需安装</text>
<text x="70" y="1845" font-size="18" fill="#155b44" font-weight="800" text-anchor="start" letter-spacing="2">03 / 场景</text>
<text x="70" y="1893" font-size="36" fill="#173328" font-weight="800" text-anchor="start">什么时候会用到？</text>
<rect x="70" y="1930" width="347" height="132" rx="15" fill="#fffefa" stroke="#d7e2d8" stroke-width="2"/>
<text x="90" y="1984" font-size="25" fill="#173328" font-weight="800" text-anchor="start">实时字幕</text>
<text x="90" y="2027" font-size="20" fill="#52645b" font-weight="400" text-anchor="start">会议、访谈、直播</text>
<rect x="441" y="1930" width="347" height="132" rx="15" fill="#fffefa" stroke="#d7e2d8" stroke-width="2"/>
<text x="461" y="1984" font-size="25" fill="#173328" font-weight="800" text-anchor="start">内容整理</text>
<text x="461" y="2027" font-size="20" fill="#52645b" font-weight="400" text-anchor="start">录音转稿、制作字幕</text>
<rect x="812" y="1930" width="347" height="132" rx="15" fill="#fffefa" stroke="#d7e2d8" stroke-width="2"/>
<text x="832" y="1984" font-size="25" fill="#173328" font-weight="800" text-anchor="start">客服记录</text>
<text x="832" y="2027" font-size="20" fill="#52645b" font-weight="400" text-anchor="start">多人对话与时间线</text>
<rect x="1183" y="1930" width="347" height="132" rx="15" fill="#fffefa" stroke="#d7e2d8" stroke-width="2"/>
<text x="1203" y="1984" font-size="25" fill="#173328" font-weight="800" text-anchor="start">语音助手输入</text>
<text x="1203" y="2027" font-size="20" fill="#52645b" font-weight="400" text-anchor="start">把讲话交给业务系统</text>
<text x="70" y="2109" font-size="18" fill="#155b44" font-weight="800" text-anchor="start" letter-spacing="2">04 / 对我们的意义</text>
<text x="70" y="2157" font-size="36" fill="#173328" font-weight="800" text-anchor="start">当前先验证效果，实时需求明确后再深挖</text>
<rect x="70" y="2183" width="710" height="210" rx="18" fill="#fffefa" stroke="#d7e2d8" stroke-width="2"/>
<rect x="70" y="2183" width="9" height="210" rx="4" fill="#d9744e" stroke="#d9744e" stroke-width="0"/>
<text x="101" y="2232" font-size="21" fill="#155b44" font-weight="800" text-anchor="start">现在 · 录制与成片为主</text>
<text x="101" y="2281" font-size="31" fill="#173328" font-weight="800" text-anchor="start">先看效果，不急着集成</text>
<text x="101" y="2323" font-size="21" fill="#52645b" font-weight="400" text-anchor="start">003 Voicebox 已覆盖一部分听写。</text>
<text x="101" y="2356" font-size="21" fill="#52645b" font-weight="400" text-anchor="start">用自己的中文音频小样本对照即可。</text>
<rect x="820" y="2183" width="710" height="210" rx="18" fill="#123c2e" stroke="#123c2e" stroke-width="2"/>
<rect x="820" y="2183" width="9" height="210" rx="4" fill="#d9744e" stroke="#d9744e" stroke-width="0"/>
<text x="851" y="2232" font-size="21" fill="#acd6b8" font-weight="800" text-anchor="start">以后 · 需要实时互动时</text>
<text x="851" y="2281" font-size="31" fill="#fffefa" font-weight="800" text-anchor="start">再研究流式工程能力</text>
<text x="851" y="2323" font-size="21" fill="#d5e5d9" font-weight="400" text-anchor="start">重点测文字确认延迟、准确度、并发</text>
<text x="851" y="2356" font-size="21" fill="#d5e5d9" font-weight="400" text-anchor="start">以及和现有项目的接口衔接。</text>
<text x="70" y="2443" font-size="22" fill="#155b44" font-weight="800" text-anchor="start">可探索的组合（尚未集成验证）</text>
<rect x="70" y="2464" width="248" height="70" rx="12" fill="#fffefa" stroke="#d7e2d8" stroke-width="2"/>
<text x="194.0" y="2509" font-size="21" fill="#173328" font-weight="700" text-anchor="middle">用户讲话</text>
<rect x="356" y="2464" width="248" height="70" rx="12" fill="#fffefa" stroke="#d7e2d8" stroke-width="2"/>
<text x="480.0" y="2509" font-size="21" fill="#173328" font-weight="700" text-anchor="middle">005 实时转写</text>
<rect x="642" y="2464" width="248" height="70" rx="12" fill="#fffefa" stroke="#d7e2d8" stroke-width="2"/>
<text x="766.0" y="2509" font-size="21" fill="#173328" font-weight="700" text-anchor="middle">006 Fay / LLM</text>
<rect x="928" y="2464" width="248" height="70" rx="12" fill="#fffefa" stroke="#d7e2d8" stroke-width="2"/>
<text x="1052.0" y="2509" font-size="21" fill="#173328" font-weight="700" text-anchor="middle">003 Voicebox TTS</text>
<rect x="1214" y="2464" width="316" height="70" rx="12" fill="#fffefa" stroke="#d7e2d8" stroke-width="2"/>
<text x="1372.0" y="2509" font-size="21" fill="#173328" font-weight="700" text-anchor="middle">004 LiveTalking 画面</text>
<line x1="326" y1="2499" x2="345" y2="2499" stroke="#d9744e" stroke-width="4" marker-end="url(#arrow)"/>
<line x1="612" y1="2499" x2="631" y2="2499" stroke="#d9744e" stroke-width="4" marker-end="url(#arrow)"/>
<line x1="898" y1="2499" x2="917" y2="2499" stroke="#d9744e" stroke-width="4" marker-end="url(#arrow)"/>
<line x1="1184" y1="2499" x2="1203" y2="2499" stroke="#d9744e" stroke-width="4" marker-end="url(#arrow)"/>
<text x="70" y="2572" font-size="20" fill="#52645b" font-weight="400" text-anchor="start">成片后可研究 002 内容分发；001 RVC 仅在需要改变已有音频声线时加入。</text>
<rect x="70" y="2602" width="1460" height="93" rx="13" fill="#fff3ec" stroke="#f1d7c8" stroke-width="2"/>
<text x="97" y="2640" font-size="22" fill="#aa593d" font-weight="800" text-anchor="start">能力边界</text>
<text x="97" y="2675" font-size="21" fill="#6b5b52" font-weight="400" text-anchor="start">它不负责语音合成或数字人画面；实时不等于零延迟；说话人编号不等于真实身份。</text>
<text x="70" y="2740" font-size="18" fill="#70847a" font-weight="400" text-anchor="start">资料：项目 README · API · Backends · Alignment · Benchmarks · OpenAI Whisper · LiveKit 官方文档</text>
<text x="1530" y="2740" font-size="18" fill="#155b44" font-weight="800" text-anchor="end" letter-spacing="1">005 / WHISPERLIVEKIT</text>
</svg>
